<svg id="图层_1" data-name="图层 1" xmlns="http://www.w3.org/2000/svg" xmlns:xlink="http://www.w3.org/1999/xlink" viewBox="0 0 220.5 170.74"><defs><style>.cls-1,.cls-12,.cls-16,.cls-17,.cls-18,.cls-19,.cls-20,.cls-21,.cls-22,.cls-23,.cls-29,.cls-3{fill:none;}.cls-1{stroke-linecap:round;stroke-linejoin:round;stroke-dasharray:2;stroke:url(#未命名的渐变);}.cls-1,.cls-12,.cls-16,.cls-17,.cls-18,.cls-19,.cls-20,.cls-21,.cls-22,.cls-23,.cls-29{strokeWidth:0.5px;}.cls-10,.cls-11,.cls-13,.cls-14,.cls-15,.cls-2,.cls-4,.cls-5,.cls-6,.cls-7,.cls-8,.cls-9{fillRule:evenodd;}.cls-2{fill:url(#未命名的渐变_2);}.cls-3{stroke:url(#未命名的渐变_3);}.cls-4{fill-opacity:0.9;fill:url(#未命名的渐变_4);}.cls-5{fill:#025707;}.cls-6{fill:#004005;fill-opacity:0.8;}.cls-7{fill:url(#未命名的渐变_5);}.cls-8{fill:url(#未命名的渐变_6);}.cls-9{fill:url(#未命名的渐变_7);}.cls-10{fill:url(#未命名的渐变_8);}.cls-11{fill:url(#未命名的渐变_9);}.cls-12{stroke:url(#未命名的渐变_10);}.cls-13,.cls-14{fill-opacity:0.7;}.cls-13{fill:url(#未命名的渐变_11);}.cls-14{fill:#d9eeda;}.cls-15{fill:url(#未命名的渐变_12);}.cls-16{opacity:0.41;stroke:url(#未命名的渐变_13);}.cls-16,.cls-19,.cls-21,.cls-28,.cls-29{isolation:isolate;}.cls-17{stroke:url(#未命名的渐变_14);}.cls-18{stroke:url(#未命名的渐变_15);}.cls-19,.cls-21,.cls-28{opacity:0.73;}.cls-19{stroke:url(#未命名的渐变_16);}.cls-20{stroke:url(#未命名的渐变_17);}.cls-21{stroke:url(#未命名的渐变_18);}.cls-22{stroke:url(#未命名的渐变_19);}.cls-23{stroke:url(#未命名的渐变_20);}.cls-24{fill:#008200;}.cls-25{fill:#018802;}.cls-26{fill:#007d00;}.cls-27{fill:#07a707;}.cls-28{fill:#008c00;}.cls-29{stroke:#fff;opacity:0.16;}</style><linearGradient id="未命名的渐变" x1="-149.71" y1="232.75" x2="-149.71" y2="231.78" gradientTransform="matrix(220, 0, 0, -50.04, 33070, 11497.44)" gradientUnits="userSpaceOnUse"><stop offset="0" stop-color="#fff" stop-opacity="0.32"/><stop offset="1" stop-color="#fff" stop-opacity="0.44"/></linearGradient><linearGradient id="未命名的渐变_2" x1="-148.86" y1="233.88" x2="-148.68" y2="233.75" gradientTransform="matrix(96.41, 0, 0, -36.71, 14483.48, 8721.1)" gradientUnits="userSpaceOnUse"><stop offset="0" stop-color="#003805"/><stop offset="1" stop-color="#036409"/></linearGradient><linearGradient id="未命名的渐变_3" x1="-149.96" y1="241.87" x2="-149.07" y2="241.86" gradientTransform="matrix(174.89, 0, 0, -15.44, 26259.35, 3818.73)" gradientUnits="userSpaceOnUse"><stop offset="0" stop-color="#66bb9f" stop-opacity="0"/><stop offset="1" stop-color="#fff" stop-opacity="0.28"/></linearGradient><linearGradient id="未命名的渐变_4" x1="-148.55" y1="233.88" x2="-147.64" y2="233.76" gradientTransform="matrix(72.12, 0, 0, -36.71, 10745.39, 8721.1)" gradientUnits="userSpaceOnUse"><stop offset="0" stop-color="#007c00"/><stop offset="1" stop-color="#00a600"/></linearGradient><linearGradient id="未命名的渐变_5" x1="-148.06" y1="236.52" x2="-147.16" y2="236.44" gradientTransform="matrix(60.09, 0, 0, -25.26, 8944.72, 6083.41)" xlink:href="#未命名的渐变_4"/><linearGradient id="未命名的渐变_6" x1="-147.27" y1="237.13" x2="-146.36" y2="237" gradientTransform="matrix(47.09, 0, 0, -23.58, 6996.3, 5672.99)" xlink:href="#未命名的渐变_4"/><linearGradient id="未命名的渐变_7" x1="-145.91" y1="253.24" x2="-145.91" y2="252.24" gradientTransform="matrix(37.9, 0, 0, -8.66, 5642.83, 2236.04)" gradientUnits="userSpaceOnUse"><stop offset="0" stop-color="#fff"/><stop offset="1" stop-color="#334d35"/></linearGradient><linearGradient id="未命名的渐变_8" x1="-146.21" y1="237.05" x2="-146.21" y2="235.89" gradientTransform="matrix(40.54, 0, 0, -24.99, 6055.33, 5970.99)" gradientUnits="userSpaceOnUse"><stop offset="0" stop-color="#bfcfbf"/><stop offset="1" stop-color="#003304"/></linearGradient><linearGradient id="未命名的渐变_9" x1="-145.33" y1="236.66" x2="-145.33" y2="235.63" gradientTransform="matrix(33.64, 0, 0, -25.7, 4982.22, 6133.53)" gradientUnits="userSpaceOnUse"><stop offset="0" stop-color="#f6f8f7"/><stop offset="1" stop-color="#009b00"/></linearGradient><linearGradient id="未命名的渐变_10" x1="-149.99" y1="237.95" x2="-149.06" y2="237.94" gradientTransform="matrix(171.79, 0, 0, -21.09, 25793.96, 5051.02)" gradientUnits="userSpaceOnUse"><stop offset="0" stop-color="#5c5c5c" stop-opacity="0"/><stop offset="1" stop-color="#2f2f2f"/></linearGradient><linearGradient id="未命名的渐变_11" x1="-148.09" y1="257.63" x2="-148.09" y2="256.63" gradientTransform="matrix(72.26, 0, 0, -7.36, 10813.3, 1963.69)" gradientUnits="userSpaceOnUse"><stop offset="0" stop-color="#11d311"/><stop offset="1" stop-color="#07a707"/></linearGradient><linearGradient id="未命名的渐变_12" x1="-141.32" y1="236.53" x2="-141.32" y2="235.53" gradientTransform="matrix(18.96, 0, 0, -26.62, 2782.06, 6316.45)" gradientUnits="userSpaceOnUse"><stop offset="0" stop-color="#fff"/><stop offset="1" stop-color="#d8d8d8"/></linearGradient><linearGradient id="未命名的渐变_13" x1="-150" y1="229.29" x2="-149" y2="229.29" gradientTransform="matrix(174.89, 0, 0, -162.39, 26259.35, 37314.77)" gradientUnits="userSpaceOnUse"><stop offset="0" stop-color="#fff" stop-opacity="0.22"/><stop offset="1" stop-color="#fff"/></linearGradient><linearGradient id="未命名的渐变_14" x1="23.06" y1="238.05" x2="23.06" y2="237.16" gradientTransform="matrix(1, 0, 0, -22.13, 187.05, 5373.21)" gradientUnits="userSpaceOnUse"><stop offset="0" stop-color="#007c00" stop-opacity="0"/><stop offset="1" stop-color="#00a600"/></linearGradient><linearGradient id="未命名的渐变_15" x1="23.06" y1="233.27" x2="23.06" y2="232.38" gradientTransform="matrix(1, 0, 0, -43.65, 163.62, 10244.56)" xlink:href="#未命名的渐变_14"/><linearGradient id="未命名的渐变_16" x1="23.06" y1="234.25" x2="23.06" y2="233.37" gradientTransform="matrix(1, 0, 0, -36.36, 140.03, 8549.98)" xlink:href="#未命名的渐变_14"/><linearGradient id="未命名的渐变_17" x1="23.06" y1="232.22" x2="23.06" y2="231.22" gradientTransform="matrix(1, 0, 0, -57.21, -9.15, 13371.11)" gradientUnits="userSpaceOnUse"><stop offset="0" stop-color="#11d311" stop-opacity="0"/><stop offset="1" stop-color="#07a707"/></linearGradient><linearGradient id="未命名的渐变_18" x1="23.06" y1="234.08" x2="23.06" y2="233.19" gradientTransform="matrix(1, 0, 0, -37.48, -13.87, 8808.31)" xlink:href="#未命名的渐变_14"/><linearGradient id="未命名的渐变_19" x1="23.06" y1="232.54" x2="23.06" y2="231.66" gradientTransform="matrix(1, 0, 0, -51.19, 24.61, 11950.29)" xlink:href="#未命名的渐变_14"/><linearGradient id="未命名的渐变_20" x1="23.06" y1="236.13" x2="23.06" y2="235.24" gradientTransform="matrix(1, 0, 0, -27.59, 56.64, 6518.43)" xlink:href="#未命名的渐变_14"/></defs><g id="页面-1"><g id="切图"><g id="编组-20"><g id="编组"><path id="路径-47" class="cls-1" d="M121.24-98.34,244.06-123l-110.7-25.33L24.06-126.8Z" transform="translate(-23.81 268.82)"/><polygon id="路径-34" class="cls-2" points="102.11 127.48 98.89 157.16 195.3 138.59 182.42 120.45 102.11 127.48"/><polygon id="路径-49" class="cls-3" points="24.8 83.31 98.89 76.31 199.69 84.98 104.75 91.75 24.8 83.31"/><polygon id="路径-35" class="cls-4" points="30 137.65 98.89 157.16 102.11 127.48 42.33 120.45 30 137.65"/><polygon id="路径-36" class="cls-5" points="102.11 127.48 182.42 120.45 110.25 115.56 42.33 120.45 102.11 127.48"/><polygon id="路径-37" class="cls-6" points="104.75 98.68 102.11 122.68 180.37 116.84 166.82 98.22 104.75 98.68"/><polygon id="路径-38" class="cls-7" points="102.11 122.68 44.66 116.85 58.17 97.42 104.75 98.68 102.11 122.68"/><polygon id="路径-39" class="cls-6" points="107.11 71.52 104.75 95.1 164.4 95.1 150.51 74.84 107.11 71.52"/><polygon id="路径-40" class="cls-8" points="104.75 95.1 60.02 95.1 73.77 75.3 107.11 71.52 104.75 95.1"/><polygon id="路径-46" class="cls-9" points="93.29 47.29 110.25 51.6 131.19 47.29 110.25 42.94 93.29 47.29"/><polygon id="路径-41" class="cls-10" points="109.55 46.52 107.63 68.11 148.17 71.52 133.55 50.86 109.55 46.52"/><polygon id="路径-42" class="cls-11" points="75.91 72.23 107.63 68.11 109.55 46.52 91.32 50.48 75.91 72.23"/><polyline id="路径-50" class="cls-12" points="199.69 23.74 120.72 40.34 27.9 19.25"/><polygon id="路径-43" class="cls-13" points="75.91 72.23 107.63 68.11 148.17 71.52 107.11 75.46 75.91 72.23"/><polygon id="路径-44" class="cls-14" points="112.25 20.67 110.25 42.94 131.19 47.29 112.25 20.67"/><polygon id="路径-45" class="cls-15" points="93.29 47.29 110.25 42.94 112.25 20.67 93.29 47.29"/><polygon id="路径-48" class="cls-16" points="97.85 162.65 199.69 143.46 199.69 23.74 99.08 0.26 24.8 18.55 24.8 141.21 97.85 162.65"/><line id="路径-51" class="cls-17" x1="210.1" y1="124.45" x2="210.1" y2="102.32"/><line id="路径-52" class="cls-18" x1="186.68" y1="101.82" x2="186.68" y2="58.17"/><line id="路径-53" class="cls-19" x1="163.09" y1="64.42" x2="163.09" y2="28.05"/><line id="路径-54" class="cls-20" x1="13.91" y1="143.45" x2="13.91" y2="86.24"/><line id="路径-55" class="cls-21" x1="9.19" y1="68.11" x2="9.19" y2="30.62"/><line id="路径-56" class="cls-22" x1="47.67" y1="92.8" x2="47.67" y2="41.62"/><line id="路径-57" class="cls-23" x1="79.7" y1="28.78" x2="79.7" y2="1.2"/><rect id="矩形" class="cls-24" x="209.06" y="-178.35" width="3" height="3" transform="translate(153.37 364.91) rotate(-43)"/><rect id="矩形备份-4" class="cls-25" x="70.06" y="-192.35" width="3" height="3" transform="translate(125.58 266.35) rotate(-43)"/><rect id="矩形备份" class="cls-26" x="214.06" y="-147.35" width="2" height="2" transform="translate(133.78 376.18) rotate(-43)"/><rect id="矩形备份-2" class="cls-27" x="180.25" y="48.47" width="3" height="3"/><rect id="矩形备份-3" class="cls-28" x="186.06" y="-213.35" width="2" height="2" transform="translate(181.13 338.9) rotate(-45)"/><line id="路径-58" class="cls-29" x1="99.08" y1="0.26" x2="97.85" y2="162.65"/></g></g></g></g></svg>