<?xml version="1.0" encoding="UTF-8"?>
<svg viewBox="0 0 410 147" version="1.1" xmlns="http://www.w3.org/2000/svg" xmlns:xlink="http://www.w3.org/1999/xlink">
    <title>编组</title>
    <defs>
        <linearGradient x1="-7.78018202%" y1="59.2514152%" x2="95.5819234%" y2="41.3487699%" id="linearGradient-1">
            <stop stop-color="#025DFF" offset="0%"></stop>
            <stop stop-color="#3BF2E2" offset="100%"></stop>
        </linearGradient>
    </defs>
    <g id="页面-1" stroke="none" stroke-width="1" fill="none" fill-rule="evenodd">
        <g id="画板备份-4" transform="translate(-51.000000, -183.000000)">
            <g id="编组" transform="translate(51.000000, 183.000000)">
                <g id="编组备份-2">
                    <path d="M37.992278,82.823166 L37.992,82.824 L38.96274,82.8241913 C43.3884019,108.921154 66.1039477,128.793822 93.4610039,128.793822 C120.81806,128.793822 143.533606,108.921154 147.959268,82.8241913 L166.556485,82.8233028 C161.89901,118.832613 131.118541,146.650193 93.8409266,146.650193 C63.4510155,146.650193 37.3791293,128.162531 26.2586759,101.820614 L18.996139,101.819305 C8.50486112,101.819305 0,93.3144439 0,82.823166 L0,82.823166 L37.992278,82.823166 Z M93.8409266,0 C124.230852,0 150.302749,18.4876801 161.423193,44.8296171 L196.8,44.830888 C196.8,55.3221659 188.295139,63.827027 177.803861,63.827027 L109.411614,63.8271122 C106.208,58.5864239 100.43292,55.0888031 93.8409266,55.0888031 C83.7692999,55.0888031 75.6046332,63.2534698 75.6046332,73.3250965 C75.6046332,83.3967233 83.7692999,91.56139 93.8409266,91.56139 C100.43292,91.56139 106.208,88.0637691 109.411614,82.8230809 L129.457891,82.8230398 C125.268666,98.5730626 110.909989,110.177606 93.8409266,110.177606 C73.4878476,110.177606 56.988417,93.6781756 56.988417,73.3250965 C56.988417,52.9720175 73.4878476,36.4725869 93.8409266,36.4725869 C102.712676,36.4725869 110.852224,39.6075126 117.212242,44.8300349 L140.72423,44.8302053 C131.026434,28.8855979 113.487358,18.2362934 93.4610039,18.2362934 C66.2364875,18.2362934 43.6086159,37.9168694 39.0283509,63.8270597 L21.1253616,63.826942 C25.7828134,27.8176071 56.5632949,0 93.8409266,0 Z" id="形状结合" fill="url(#linearGradient-1)"></path>
                    <polygon id="路径-31" fill="#03B3E3" points="93.8409266 83.4737271 103.338996 73.9756576 93.8378637 64.4775881 84.3428571 73.9747734"></polygon>
                </g>
                <path d="M233.208,112.832 L233.208,80.9184865 L265.972541,80.9184865 C265.972541,73.6333431 260.066765,67.7275676 252.781622,67.7275676 L233.208,67.7275676 L233.208,67.7275676 L233.208,47.1965405 L252.888,47.1965405 C260.114392,47.1965405 265.972541,41.3383922 265.972541,34.112 L265.972541,34.112 L265.972541,34.112 L217.464,34.112 L217.464,112.832 L233.208,112.832 Z M290.814204,112.832 L290.814204,34.112 L275.070204,34.112 L275.070204,112.832 L290.814204,112.832 Z M353.207436,112.832 C353.207436,105.546857 347.30166,99.6410811 340.016517,99.6410811 L321.293922,99.6410811 L321.293922,99.6410811 L321.293922,34.112 L305.549922,34.112 L305.549922,112.832 L353.207436,112.832 Z M409.962613,112.832 C409.962613,105.546857 404.056838,99.6410811 396.771694,99.6410811 L378.0491,99.6410811 L378.0491,99.6410811 L378.0491,34.112 L362.3051,34.112 L362.3051,112.832 L409.962613,112.832 Z" id="FILL" fill="#FFFFFF" fill-rule="nonzero"></path>
            </g>
        </g>
    </g>
</svg>